<svg xmlns="http://www.w3.org/2000/svg" viewBox="0 0 48 48"><defs><style>.cls-1{fill:#dad7e5}.cls-3{fill:#f6ccaf}.cls-4{fill:#6fabe6}.cls-5{fill:#82bcf4}.cls-7{fill:#ffdec7}.cls-8{fill:#be927c}.cls-9{fill:#a87e6b}.cls-10{fill:#db5669}.cls-11{fill:#edebf2}.cls-12{fill:#f26674}</style></defs><g id="Guests"><path class="cls-1" d="m24 29-3.54 4.42-3-6.35L20 26zM30.5 27.07l-2.96 6.35L24 29l4-3 2.5 1.07z"/><path d="M28 22.46V26l-4 3-4-3v-3.54a6 6 0 0 0 8 0z" style="fill:#edb996"/><path class="cls-3" d="M28 25.19V26l-4 3-3-2.25v-.43a1 1 0 0 1 1.41-.91 6 6 0 0 0 5.59-.22zM30 14.73c0 2.9.45 6.08-2.38 8a6 6 0 0 1-7.62-.27c-2.4-2.12-2-4.56-2-7.73.61.36.95.27 3.34.27a4 4 0 0 0 2.81-1.16c1.48 1.09 1.93 1.16 2.79 1.16 2.13 0 2.47.08 3.06-.27z"/><path class="cls-4" d="M35 32.3V41H24c1.16-2.49 2.5-5.34 6.5-13.93l1.5.63a5 5 0 0 1 3 4.6zM24 41H13v-8.7a5 5 0 0 1 3-4.58l1.47-.63C23.72 40.42 21.71 36.07 24 41z"/><path class="cls-5" d="M35 32.3V39H24.93c3.29-7 2-4.31 5.57-11.93l1.5.63a5 5 0 0 1 3 4.6z"/><path d="M13 34.08V41H1v-6.92a3.47 3.47 0 0 1 2-1c2-.33 3 1 4 2l1-1a3.52 3.52 0 0 1 5 0z" style="fill:#de4a8c"/><path class="cls-3" d="M14 29.29c-1.17 1.58-1 2.94-1 4.79A3.52 3.52 0 0 0 10.46 33C8.78 33 8 34 7 35c-1-1-1.78-2-3.46-2A3.55 3.55 0 0 0 1 34.08v-5.22L3 28v-3.54a6 6 0 0 0 8 0V28z"/><path class="cls-3" d="M13 17c0 3.23.39 5.64-2.39 7.78A6 6 0 0 1 3 24.46C.65 22.38 1 20 1 17c3.17 0 4.79.24 6.84-1.08A10 10 0 0 0 13 17z"/><path class="cls-7" d="M13 17c0 1.73.05.74-.09 0zM13 18c0 2.6.21 4.78-2.39 6.78A6 6 0 0 1 3 19v-1a7.68 7.68 0 0 0 4.84-1.08A10 10 0 0 0 13 18z"/><path class="cls-8" d="M31 11c0 1.68.27 3-1 3.73-.66.39-1.23.27-3.06.27a3.58 3.58 0 0 1-2.26-.77l-.53-.39A4 4 0 0 1 21.34 15c-2.39 0-2.73.09-3.34-.27-1.33-.73-1-1.92-1-5.73a2 2 0 0 1 2-2h8a2 2 0 0 1 2 2 2 2 0 0 1 2 2z"/><path class="cls-9" d="M23.34 14c-2.39 0-2.73.09-3.34-.27-1.33-.73-1-1.92-1-5.73 0-1.08.63-1 0-1a2 2 0 0 0-2 2v4a2 2 0 0 0 2 2c2.14 0 3.62.25 5-1.07a4.05 4.05 0 0 1-.66.07z"/><path class="cls-10" d="M27.54 33.42 24 41l-3.54-7.58L24 29z"/><path class="cls-11" d="m30.5 27.07-2.96 6.35L24 29l4-3 2.5 1.07z"/><path class="cls-12" d="m27.54 33.42-2.91 6.24-3.41-7.19L24 29l3.54 4.42z"/><path class="cls-11" d="m24 29-2.78 3.47-2.72-5.83L20 26z"/><path class="cls-8" d="M13 17a9.8 9.8 0 0 1-5.16-1.08C5.8 17.23 4.26 17 1 17a6 6 0 0 1 12 0z"/><path class="cls-9" d="M8 11.09A6 6 0 0 0 1 17h2a6 6 0 0 1 5-5.91z"/><path class="cls-9" d="M9 9v2.35a5.85 5.85 0 0 0-4 0V9a2 2 0 0 1 4 0z"/><path class="cls-8" d="M9 9v1.09A5.55 5.55 0 0 0 8 10a2 2 0 0 1-1.82-2.82A2 2 0 0 1 9 9z"/><path class="cls-10" d="M47 34.08V41H35c0-7.26-.06-6.86 0-7a3.56 3.56 0 0 1 2.5-1c1.72 0 2.5 1 3.5 2 1-1 1.78-2 3.46-2A3.49 3.49 0 0 1 47 34.08z"/><path class="cls-3" d="M47 28.86v5.22A3.49 3.49 0 0 0 44.46 33C42.78 33 42 34 41 35c-1-1-1.78-2-3.46-2A3.6 3.6 0 0 0 35 34.08c0-1.87.17-3.21-1-4.79L37 28v-3.54a6 6 0 0 0 8 0V28z"/><path class="cls-3" d="M47 17c0 3 .35 5.38-2 7.46a6 6 0 0 1-8.24-.22C34.66 22.16 35 20 35 17a9.85 9.85 0 0 0 5.16-1.08C42.2 17.23 43.74 17 47 17z"/><path class="cls-7" d="M47 17c0 1.84 0 .71-.09 0z"/><path class="cls-7" d="M47 18c0 2.59.21 4.78-2.39 6.78A6 6 0 0 1 39 23.46c-2-1.74-2-3.76-2-5.54a9.74 9.74 0 0 0 3.16-1C42.2 18.23 43.74 18 47 18z"/><path class="cls-8" d="M35 17a9.8 9.8 0 0 0 5.16-1.08C42.2 17.23 43.74 17 47 17a6 6 0 0 0-12 0z"/><path class="cls-9" d="M42 11.09A6 6 0 0 0 35 17a12 12 0 0 0 2-.09 6 6 0 0 1 5-5.82z"/><path class="cls-9" d="M43 9v2.35a5.85 5.85 0 0 0-4 0V9a2 2 0 0 1 4 0z"/><path class="cls-8" d="M43 9.16v.93a5.55 5.55 0 0 0-1-.09 2 2 0 0 1-1.82-2.82A2 2 0 0 1 43 9.16z"/><path class="cls-5" d="M23.07 39A7.08 7.08 0 0 1 16 31.93v-4.18c.07-.1-.08 0 1.5-.68C23.49 39.93 23 39 23.07 39z"/><path class="cls-7" d="M30 15.73c0 2.45.27 5.21-2.38 7A6 6 0 0 1 20 17v-1c1.57 0 2.86.13 4.15-1.16 1.48 1.09 1.93 1.16 2.79 1.16 2.13 0 2.47.08 3.06-.27z"/><path class="cls-12" d="M47 34.08V39h-4a6 6 0 0 1-6-6c1.83-.43 3.11 1.06 4 2l1-1a3.52 3.52 0 0 1 5 .08z"/><path class="cls-7" d="M47 28.86v5.22A3.49 3.49 0 0 0 44.46 33C42.78 33 42 34 41 35c-1.13-1.13-2-2.27-4-2a2 2 0 0 1-1-1.69v-2.88l1-.43v-1.81a5.88 5.88 0 0 0 3 .81c2.88 0 4.24-1.86 5-2.54V28z"/><path d="M13 34.08V39H9a6 6 0 0 1-6-6c2-.33 3 1 4 2l1-1a3.52 3.52 0 0 1 5 .08z" style="fill:#f26da6"/><path class="cls-7" d="M14 29.29c-1.17 1.58-1 2.94-1 4.79A3.52 3.52 0 0 0 10.46 33C8.78 33 8 34 7 35c-1.13-1.13-2-2.27-4-2a2 2 0 0 1-1-1.69v-2.88L3 28v-1.81A5.88 5.88 0 0 0 6 27c5.62 0 5-6.19 5 1z"/></g></svg>