<svg xmlns="http://www.w3.org/2000/svg" viewBox="0 0 48 48"><defs><style>.cls-1{fill:#f6ccaf}.cls-2{fill:#ffdec7}.cls-3{fill:#db5669}.cls-4{fill:#f26674}.cls-9{fill:#fc6}.cls-10{fill:#5b9ad8}.cls-11{fill:#c4455e}</style></defs><g id="feedback_from_customer" data-name="feedback from customer"><path class="cls-1" d="M28 34a5 5 0 1 1-6.37-7.4C26.22 24 31.22 29.71 28 34z"/><path class="cls-2" d="M28.4 33.37c-4.27 2.46-9.25-2.47-6.77-6.77a5 5 0 0 1 6.77 6.77z"/><path class="cls-3" d="M21.42 36.31A11 11 0 0 0 14.2 42H1c0-11.09 14.65-15.2 20.42-5.69z"/><path class="cls-1" d="M17 26a5 5 0 1 1-7.39-4.39A5 5 0 0 1 17 26z"/><path class="cls-2" d="M16.39 28.39a5 5 0 0 1-6.78-6.78 5 5 0 0 1 6.78 6.78z"/><path class="cls-3" d="M47 42H33.8a11 11 0 0 0-7.22-5.69C32.35 26.81 47 30.9 47 42z"/><path class="cls-4" d="M20.13 34.59A12.81 12.81 0 0 0 13.06 40H7.34a3.46 3.46 0 0 1-3.16-5 10.3 10.3 0 0 1 1.12-1.73 11 11 0 0 1 14.83 1.32zM46.82 40H35a12.93 12.93 0 0 0-6.63-5.25 11.08 11.08 0 0 1 1-1.48A11 11 0 0 1 46.82 40z"/><path class="cls-1" d="M41 26a5 5 0 1 1-7.39-4.39A5 5 0 0 1 41 26z"/><path class="cls-2" d="M40.39 28.39a5 5 0 0 1-6.78-6.78 5 5 0 0 1 6.78 6.78z"/><path d="M35 47H13a10.92 10.92 0 0 1 1.2-5C19.49 31.7 35 35.53 35 47z" style="fill:#6fabe6"/><path d="M34.82 45H19.34a3.46 3.46 0 0 1-3.16-5 10.18 10.18 0 0 1 1.12-1.78A11 11 0 0 1 34.82 45z" style="fill:#82bcf4"/><path d="M43 5v6a4 4 0 0 1-4 4h-9.93a2 2 0 0 0-1.66.89l-1.75 2.61a2 2 0 0 1-3.32 0c-1.64-2.44-2-3.5-3.41-3.5H9a4 4 0 0 1-4-4V5a4 4 0 0 1 4-4h30a4 4 0 0 1 4 4z" style="fill:#edebf2"/><path d="M25.34 16.5a7.9 7.9 0 0 0-6.55-3.5H12a4 4 0 0 1-4-4c0-6.41-.17-6.71.53-7.95A4 4 0 0 0 5 5v6a4 4 0 0 0 4 4h9.93a2 2 0 0 1 1.66.89l1.75 2.61a2 2 0 0 0 3.32 0c1.34-2.05.63-.56-.32-2z" style="fill:#dad7e5"/><path class="cls-9" d="M27 6h-1.61L25 4.68a1 1 0 0 0-1.9 0L22.61 6H21a1 1 0 0 0-.62 1.78l1.29 1-.62 1.86a1 1 0 0 0 .82 1.36c.59.08.82-.24 2.13-1.29 1.39 1.11 1.69 1.51 2.37 1.24 1.15-.47.38-1.84 0-3.1l1.29-1A1 1 0 0 0 27 6zM16 6h-1.61L14 4.68a1 1 0 0 0-1.9 0L11.61 6H10a1 1 0 0 0-.62 1.78l1.29 1-.62 1.86a1 1 0 0 0 .82 1.36c.58.08.79-.21 2.13-1.29 1.39 1.11 1.69 1.51 2.37 1.24 1.15-.47.38-1.84 0-3.1l1.29-1A1 1 0 0 0 16 6zM38.94 6.67C38.65 5.85 38 6 36.39 6c-.33-1-.45-2-1.39-2s-.91.57-1.39 2c-1.37 0-2.25-.2-2.55.67s.37 1.15 1.61 2.15c-.79 2.36-.59 1.79-.63 2a1 1 0 0 0 .83 1.18c.6.08.77-.2 2.13-1.29 1.22 1 1.53 1.31 2 1.32a1 1 0 0 0 .93-.65c.18-.46 0-.66-.59-2.53l1.29-1a1 1 0 0 0 .31-1.18z"/><path class="cls-10" d="M31 45v2h-2v-2a1 1 0 0 1 2 0zM19 45v2h-2v-2a1 1 0 0 1 2 0z"/><path class="cls-11" d="M7 40v2H5v-2a1 1 0 0 1 2 0zM43 40v2h-2v-2a1 1 0 0 1 2 0z"/></g></svg>