<svg xmlns="http://www.w3.org/2000/svg" width="32" height="32" id="hotel"><g color="#000" transform="translate(441 -1220.912)"><ellipse cx="-425.226" cy="1245.303" fill="#34485c" overflow="visible" rx="2.07" ry="2.059" style="isolation:auto;mix-blend-mode:normal"></ellipse><path fill="#2b4255" d="M-421.474 1242.116a5.534 5.534 0 0 0-3.751-1.475 5.526 5.526 0 0 0-3.754 1.472l-1.954-1.944a8.284 8.284 0 0 1 11.41.005z" overflow="visible" style="isolation:auto;mix-blend-mode:normal"></path><path fill="#34485c" d="M-417.35 1238.013a11.069 11.069 0 0 0-7.414-2.863 11.05 11.05 0 0 0-7.885 3.311l-1.949-1.939a13.832 13.832 0 0 1 9.834-4.118 13.855 13.855 0 0 1 9.365 3.668z" overflow="visible" style="isolation:auto;mix-blend-mode:normal"></path><path fill="#576d7e" d="M-413.451 1234.133a16.602 16.602 0 0 0-11.313-4.475 16.617 16.617 0 0 0-11.785 4.923l-1.951-1.942a19.365 19.365 0 0 1 13.736-5.727 19.374 19.374 0 0 1 13.264 5.28z" overflow="visible" style="isolation:auto;mix-blend-mode:normal"></path></g></svg>